<svg xmlns="http://www.w3.org/2000/svg" fill="currentColor" viewBox="0 0 32 26" ><title>“</title><path fill-rule="evenodd" d="M30.534 20.074c0 3.266-2.687 5.926-5.984 5.926-4.275 0-6.596-3.386-6.596-7.498 0-5.683 4.03-13.423 12.702-18.502L32 1.935c-4.52 3.87-6.84 8.465-7.817 11.972 3.909.242 6.351 2.902 6.351 6.167zm-17.954 0C12.58 23.34 9.893 26 6.595 26 2.321 26 0 22.614 0 18.502 0 12.82 4.03 5.08 12.702 0l1.344 1.935c-4.52 3.87-6.84 8.465-7.817 11.972 3.908.242 6.351 2.902 6.351 6.167z"></path></svg>