<svg version="1.1" id="Layer_2" xmlns="http://www.w3.org/2000/svg" xmlns:xlink="http://www.w3.org/1999/xlink" x="0px" y="0px"
	 viewBox="0 0 500 300" style="enable-background:new 0 0 500 300;" xml:space="preserve">
<style type="text/css">
	.st0{fill:#0F5B9A;}
	.st1{fill:#FFFFFF;}
	.st2{fill:#58595B;}
	.st3{fill:url(#SVGID_1_);}
	.st4{fill:#414042;}
	.st5{fill:url(#SVGID_2_);}
	.st6{fill:url(#SVGID_3_);}
	.st7{fill:url(#SVGID_4_);}
</style>
<g>
	<path class="st0" d="M352.7,205.6h-19.6V195h-7.9v29.4h7.9v-10.9h19.6v10.9h7.9V195h-7.9V205.6z M312.9,206.3l-15.4-0.5
		c-0.8,0-1.3-0.2-1.4-0.6c-0.2-0.4-0.2-1-0.2-1.9c0-0.7,0.2-1.3,0.6-1.8s0.9-0.7,1.5-0.7h10.9c1.1,0,1.9,0.3,2.4,0.8s0.8,1.2,0.8,2
		h7.9v-2.8c0-1.6-0.6-3-1.8-4.2c-1.2-1.1-2.7-1.7-4.4-1.7h-17.9c-2.2,0-4.1,0.6-5.6,1.7c-1.5,1.1-2.3,2.5-2.3,4.2v4.6
		c0,2.1,0.6,3.8,1.9,5.1c1.3,1.3,3.3,2,6,2L310,213c0.8,0,1.5,0.3,2,0.8c0.5,0.5,0.8,1.1,0.8,1.9c0,0.8-0.4,1.5-1.2,2
		c-0.8,0.6-1.7,0.8-2.8,0.8H298c-0.6,0-1.2-0.3-1.6-1s-0.7-1.4-0.7-2.3l-7.9-0.2v3.5c0,1.6,0.8,3,2.3,4.1s3.4,1.7,5.6,1.7H311
		c3.3,0,5.8-0.7,7.4-2c1.6-1.3,2.4-3.9,2.4-7.7c0-3.2-0.7-5.4-2.2-6.6C317.2,207,315.3,206.3,312.9,206.3z M437.4,197.5
		c-1.4-1.6-3.3-2.4-5.8-2.4h-25.5v29.4h7.9v-6.9h17.6c2.5,0,4.5-0.8,5.8-2.3c1.4-1.6,2.1-4.5,2.1-8.8
		C439.5,202,438.8,199.1,437.4,197.5z M430.6,208.9c-0.6,0.7-1.4,1.1-2.2,1.1H414v-7.5h14.3c0.9,0,1.7,0.4,2.4,1.1
		c0.6,0.8,1,1.7,1,2.7C431.6,207.3,431.2,208.2,430.6,208.9z M394.4,195h-21.8c-2.2,0-4.1,0.7-5.6,2.2c-1.5,1.4-2.3,3.2-2.3,5.3V217
		c0,2,0.8,3.8,2.4,5.2c1.6,1.5,3.4,2.2,5.6,2.2h21.8c2.2,0,4-0.7,5.6-2.2c1.6-1.5,2.3-3.3,2.3-5.4v-14.3c0-2.1-0.8-3.8-2.3-5.3
		C398.5,195.7,396.6,195,394.4,195z M394.4,213.6c0,0.9-0.3,1.7-1,2.4c-0.7,0.7-1.5,1-2.4,1h-14.9c-1,0-1.8-0.3-2.4-1
		c-0.7-0.7-1-1.5-1-2.4v-7.9c0-0.9,0.3-1.6,1-2.2c0.6-0.6,1.5-0.9,2.4-0.9h14.9c1,0,1.8,0.3,2.5,0.9c0.7,0.6,1,1.4,1,2.3V213.6z"/>
	<path class="st1" d="M168.5,201.8V195h-30.1v29.4h30.1v-6.8h-22.2v-5.1h20.9v-5.9h-20.9v-4.8H168.5z M60.5,202.9h12.3v21.5h9v-21.5
		H94V195H60.5V202.9z M125.8,205.6h-19.6V195h-7.9v29.4h7.9v-10.9h19.6v10.9h7.9V195h-7.9V205.6z"/>
	<path class="st2" d="M204.6,224.4h7.9V195h-7.9V224.4z M250.9,195v7.9h12.3v21.5h9v-21.5h12.2V195H250.9z M180,195h-7.9v29.4h28.5
		v-6.8H180V195z M217.3,224.4h7.9v-11.9h20.9v-5.9h-20.9v-4.8h22.2V195h-30.1V224.4z"/>
</g>
<linearGradient id="SVGID_1_" gradientUnits="userSpaceOnUse" x1="147.2606" y1="165.2484" x2="147.2606" y2="75.3284">
	<stop  offset="0" style="stop-color:#63B2DE"/>
	<stop  offset="1" style="stop-color:#0F5B9A"/>
</linearGradient>
<path class="st3" d="M171.7,75.3h-3.9c-8.2,0-14.1,3.1-17.9,8.4l-44.6,61.7c-7.1,9.9,1.7,19.9,16.4,19.9h5.5c9,0,14.3-3.1,18.1-8.4
	l43.6-60.3C196.2,86.2,188.9,75.3,171.7,75.3z"/>
<polygon class="st4" points="171.3,128.1 171.3,141.6 191.7,113.4 191.7,99.8 "/>
<linearGradient id="SVGID_2_" gradientUnits="userSpaceOnUse" x1="165.9511" y1="133.7443" x2="265.5526" y2="107.0561">
	<stop  offset="0" style="stop-color:#414042"/>
	<stop  offset="1" style="stop-color:#C2C4C6"/>
</linearGradient>
<path class="st5" d="M240.2,75.3h-3.9c-8.2,0-14.1,3.1-17.9,8.4l-44.6,61.7c-7.1,9.9,1.7,19.9,16.4,19.9h5.5c9,0,14.3-3.1,18.1-8.4
	l43.6-60.3C264.7,86.2,257.4,75.3,240.2,75.3z"/>
<polygon class="st4" points="239.8,128.1 239.8,141.6 260.2,113.4 260.2,99.8 "/>
<linearGradient id="SVGID_3_" gradientUnits="userSpaceOnUse" x1="239.7844" y1="120.2884" x2="328.7085" y2="120.2884">
	<stop  offset="0" style="stop-color:#414042"/>
	<stop  offset="1" style="stop-color:#C2C4C6"/>
</linearGradient>
<path class="st6" d="M308.7,75.3h-3.9c-8.2,0-14.1,3.1-17.9,8.4l-44.6,61.7c-7.1,9.9,1.7,19.9,16.4,19.9h5.5c9,0,14.3-3.1,18.1-8.4
	l43.6-60.3C333.2,86.2,325.9,75.3,308.7,75.3z"/>
<polygon class="st4" points="308.3,128.1 308.3,141.6 328.7,113.4 328.7,99.8 "/>
<linearGradient id="SVGID_4_" gradientUnits="userSpaceOnUse" x1="308.2774" y1="120.2884" x2="397.2014" y2="120.2884">
	<stop  offset="0" style="stop-color:#414042"/>
	<stop  offset="1" style="stop-color:#C2C4C6"/>
</linearGradient>
<path class="st7" d="M377.2,75.3h-3.9c-8.2,0-14.1,3.1-17.9,8.4l-44.6,61.7c-7.1,9.9,1.7,19.9,16.4,19.9h5.5c9,0,14.3-3.1,18.1-8.4
	l43.6-60.3C401.7,86.2,394.4,75.3,377.2,75.3z"/>
</svg>
