<svg xmlns="http://www.w3.org/2000/svg" viewBox="0 0 20 20">
    <g>
        <g>
            <g>
                <path
                    d="M16.8,8.7c-0.7-2.9-3-5.2-5.9-5.9c-0.2-0.1-0.5,0.1-0.5,0.3c-0.1,0.2,0.1,0.5,0.3,0.5c2.6,0.6,4.6,2.6,5.2,5.2
                c0,0.2,0.2,0.3,0.4,0.3c0,0,0.1,0,0.1,0C16.7,9.1,16.8,8.9,16.8,8.7z"
                />
            </g>
        </g>
        <g>
            <g>
                <path
                    d="M9.1,7.9c-1.4,0-2.6,1.2-2.6,2.6s1.2,2.6,2.6,2.6s2.6-1.2,2.6-2.6S10.6,7.9,9.1,7.9z M9.1,12.2c-1,0-1.8-0.8-1.8-1.8
                s0.8-1.8,1.8-1.8c1,0,1.8,0.8,1.8,1.8S10.1,12.2,9.1,12.2z"
                />
            </g>
        </g>
        <g>
            <g>
                <path
                    d="M5.2,5.2c-0.7,0-1.3,0.6-1.3,1.3s0.6,1.3,1.3,1.3s1.3-0.6,1.3-1.3S5.9,5.2,5.2,5.2z M5.2,7C4.9,7,4.7,6.8,4.7,6.5
                c0-0.2,0.2-0.4,0.4-0.4s0.4,0.2,0.4,0.4C5.6,6.8,5.4,7,5.2,7z"
                />
            </g>
        </g>
        <g>
            <g>
                <path
                    d="M5.2,13.1c-0.7,0-1.3,0.6-1.3,1.3c0,0.7,0.6,1.3,1.3,1.3s1.3-0.6,1.3-1.3C6.5,13.7,5.9,13.1,5.2,13.1z M5.2,14.9
                c-0.2,0-0.4-0.2-0.4-0.4c0-0.2,0.2-0.4,0.4-0.4c0.2,0,0.4,0.2,0.4,0.4C5.6,14.7,5.4,14.9,5.2,14.9z"
                />
            </g>
        </g>
        <g>
            <g>
                <path
                    d="M13.1,13.1c-0.7,0-1.3,0.6-1.3,1.3c0,0.7,0.6,1.3,1.3,1.3c0.7,0,1.3-0.6,1.3-1.3C14.4,13.7,13.8,13.1,13.1,13.1z
                M13.1,14.9c-0.2,0-0.4-0.2-0.4-0.4c0-0.2,0.2-0.4,0.4-0.4c0.2,0,0.4,0.2,0.4,0.4C13.5,14.7,13.3,14.9,13.1,14.9z"
                />
            </g>
        </g>
        <g>
            <g>
                <path
                    d="M9.1,0C8.9,0,8.7,0.2,8.7,0.4v1.3C4.1,2,0.4,5.8,0.4,10.5c0,4.8,3.9,8.8,8.8,8.8c4.7,0,8.5-3.7,8.7-8.3h1.3
                c0.2,0,0.4-0.2,0.4-0.4C19.6,4.7,14.9,0,9.1,0z M9.1,18.4c-4.3,0-7.9-3.5-7.9-7.9c0-4.2,3.3-7.6,7.4-7.9v1c0,0.8,0.6,1.6,1.4,1.7
                c2.1,0.4,3.8,2.1,4.2,4.2c0.1,0.8,0.9,1.4,1.7,1.4h1C16.7,15.1,13.3,18.4,9.1,18.4z M16,10c-0.4,0-0.8-0.3-0.9-0.7
                c-0.5-2.5-2.4-4.5-4.9-4.9C9.8,4.4,9.6,4,9.6,3.6V0.9c5,0.2,9,4.2,9.2,9.2H16z"
                />
            </g>
        </g>
    </g>
</svg>
