<svg xmlns="http://www.w3.org/2000/svg" viewBox="0 0 20 20">
    <g>
        <g>
            <g>
                <path
                    d="M10,0C4.5,0,0,4.5,0,10s4.5,10,10,10s10-4.5,10-10C20,4.5,15.5,0,10,0z M19,12.6l-0.6-0.2L18.1,13l0.6,0.2
                c-0.3,0.7-0.6,1.4-1,2l-0.5-0.4l-0.4,0.5l0.5,0.4c-0.5,0.6-1,1.1-1.6,1.6l-0.4-0.5l-0.5,0.4l0.4,0.5c-0.6,0.4-1.3,0.8-2,1L13,18.1
                l-0.6,0.2l0.2,0.6c-0.7,0.2-1.5,0.3-2.2,0.4v-0.7H9.7v0.7c-0.8,0-1.5-0.1-2.2-0.4l0.2-0.6L7,18.1l-0.2,0.6c-0.7-0.3-1.4-0.6-2-1
                l0.4-0.5l-0.5-0.4l-0.4,0.5c-0.6-0.5-1.1-1-1.6-1.6l0.5-0.4l-0.4-0.5l-0.5,0.4c-0.4-0.6-0.8-1.3-1-2L1.9,13l-0.2-0.6L1,12.6
                c-0.2-0.7-0.3-1.5-0.4-2.2h0.7V9.7H0.7c0-0.8,0.1-1.5,0.4-2.2l0.6,0.2L1.9,7L1.2,6.8c0.3-0.7,0.6-1.4,1-2l0.5,0.4l0.4-0.5L2.7,4.3
                c0.5-0.6,1-1.1,1.6-1.6l0.4,0.5l0.5-0.4L4.8,2.3c0.6-0.4,1.3-0.8,2-1L7,1.9l0.6-0.2L7.4,1c0.7-0.2,1.5-0.3,2.2-0.4v0.7h0.7V0.7
                c0.8,0,1.5,0.1,2.2,0.4l-0.2,0.6L13,1.9l0.2-0.6c0.7,0.3,1.4,0.6,2,1l-0.4,0.5l0.5,0.4l0.4-0.5c0.6,0.5,1.1,1,1.6,1.6l-0.5,0.4
                l0.4,0.5l0.5-0.4c0.4,0.6,0.8,1.3,1,2L18.1,7l0.2,0.6L19,7.4c0.2,0.7,0.3,1.5,0.4,2.2h-0.7v0.7h0.7C19.3,11.1,19.2,11.8,19,12.6z"
                />
            </g>
        </g>
        <g>
            <g>
                <path
                    d="M10,2.7c-4.1,0-7.3,3.3-7.3,7.3s3.3,7.3,7.3,7.3s7.3-3.3,7.3-7.3C17.3,6,14,2.7,10,2.7z M10,16.7c-3.7,0-6.7-3-6.7-6.7
                s3-6.7,6.7-6.7s6.7,3,6.7,6.7C16.7,13.7,13.7,16.7,10,16.7z"
                />
            </g>
        </g>
        <g>
            <g>
                <path
                    d="M10,4.3c-3.1,0-5.7,2.5-5.7,5.7s2.5,5.7,5.7,5.7s5.7-2.5,5.7-5.7C15.7,6.9,13.1,4.3,10,4.3z M14.3,7.4
                c0.4,0.6,0.6,1.4,0.7,2.1l-2.1-0.2c-0.2,0-0.3-0.2-0.3-0.4c0-0.1,0-0.2,0.1-0.2L14.3,7.4z M11.1,5.1l-0.8,1.9
                C10.2,7.2,10,7.3,9.9,7.2c-0.1,0-0.1-0.1-0.2-0.2L8.9,5.1C9.6,5,10.4,5,11.1,5.1z M5.7,7.4l1.6,1.4c0.1,0.1,0.2,0.3,0,0.5
                C7.3,9.3,7.2,9.4,7.1,9.4L5,9.6C5.1,8.8,5.3,8.1,5.7,7.4z M8.5,12.6l-0.5,2c-0.7-0.3-1.3-0.7-1.8-1.3h0L8,12.2
                c0.2-0.1,0.4,0,0.5,0.1C8.5,12.4,8.5,12.5,8.5,12.6z M12,14.6L12,14.6l-0.5-2c0-0.2,0.1-0.4,0.2-0.4c0.1,0,0.2,0,0.3,0l1.8,1.1
                C13.3,13.9,12.7,14.3,12,14.6z M12.3,11.6c-0.5-0.3-1.1-0.1-1.4,0.3c-0.1,0.2-0.2,0.5-0.1,0.8l0.5,2.1c-0.9,0.2-1.8,0.2-2.7,0h0
                l0.5-2.1c0.1-0.5-0.2-1.1-0.7-1.2c-0.3-0.1-0.5,0-0.8,0.1l-1.8,1.1C5.3,12,5,11.1,5,10.2L7.2,10c0.6,0,1-0.5,0.9-1.1
                c0-0.3-0.1-0.5-0.3-0.7L6.1,6.9c0.6-0.7,1.3-1.2,2.2-1.6l0.8,2c0.2,0.5,0.8,0.8,1.3,0.5c0.2-0.1,0.4-0.3,0.5-0.5l0.8-2
                c0.8,0.3,1.6,0.9,2.2,1.6l-1.6,1.4c-0.4,0.4-0.5,1-0.1,1.4c0.2,0.2,0.4,0.3,0.7,0.3l2.2,0.2c0,0.9-0.3,1.8-0.8,2.5L12.3,11.6z"
                />
            </g>
        </g>
        <g>
            <g>
                <path
                    d="M10,8.7c-0.7,0-1.3,0.6-1.3,1.3s0.6,1.3,1.3,1.3s1.3-0.6,1.3-1.3S10.7,8.7,10,8.7z M10,10.7c-0.4,0-0.7-0.3-0.7-0.7
                S9.6,9.3,10,9.3s0.7,0.3,0.7,0.7S10.4,10.7,10,10.7z"
                />
            </g>
        </g>
    </g>
</svg>
