<svg xmlns="http://www.w3.org/2000/svg" viewBox="0 0 20 20">
    <g>
        <g>
            <g>
                <path
                    d="M14.7,16l-1-1.8l0.8-1.1c0.3-0.5,0.2-1.1-0.2-1.5c-0.2-0.2-0.5-0.2-0.8-0.2c-0.3,0-0.5,0.2-0.7,0.4l-0.2,0.3l-0.2-0.4
                l0.8-1.1c0.3-0.5,0.2-1.1-0.2-1.5C12.5,9,12.2,9,12,9c-0.3,0-0.5,0.2-0.7,0.4l-0.2,0.3l-0.2-0.4l0.8-1.1c0.3-0.5,0.2-1.1-0.2-1.5
                c-0.1-0.1-0.2-0.1-0.4-0.2c0-0.2,0-0.5-0.1-0.7l-0.1-0.1c-0.1-0.1-0.2-0.2-0.3-0.3c0.1-0.1,0.1-0.2,0-0.3L8.9,2.3
                C8.8,2.2,8.6,2.1,8.5,2.2c0,0,0,0,0,0L7.5,2.7c0.2-0.6,0.1-1.1-0.2-1.6c-0.6-1-1.9-1.4-2.9-0.8c0,0,0,0,0,0C3.4,0.9,3,2.2,3.6,3.2
                c0.3,0.5,0.8,0.9,1.3,1l0,0L4.1,4.8C3.9,4.8,3.8,5,3.9,5.2l1.6,2.8c0,0.1,0.1,0.1,0.2,0.2h0c0,0.1,0.1,0.3,0.1,0.4L6,8.7
                c0.3,0.5,0.9,0.6,1.4,0.4c0,0,0,0,0,0l0.8-0.5l0.3,0.5l-0.8,1.1c-0.3,0.5-0.2,1.1,0.2,1.5c0.2,0.1,0.4,0.2,0.6,0.2
                c0.1,0,0.1,0,0.2,0c0.3,0,0.5-0.2,0.7-0.4l0.2-0.4l0.2,0.4L9,12.7c-0.3,0.5-0.2,1.1,0.2,1.5c0.2,0.1,0.4,0.2,0.6,0.2
                c0.1,0,0.1,0,0.2,0c0.3,0,0.5-0.2,0.7-0.4l0.3-0.4l0.2,0.4l-0.8,1.1c-0.3,0.5-0.2,1.1,0.2,1.5c0.2,0.1,0.4,0.2,0.6,0.2
                c0.1,0,0.1,0,0.2,0c0.3,0,0.5-0.2,0.7-0.4l0.3-0.4l0.6,1c-0.6,0.9-0.3,2.2,0.6,2.7c0.3,0.2,0.7,0.3,1.1,0.3h0c1.1,0,2-0.9,2-2
                C16.7,16.9,15.8,16,14.7,16z M4.2,2.9C4.2,2.9,4.2,2.9,4.2,2.9C3.8,2.2,4,1.3,4.7,0.9c0.7-0.4,1.6-0.2,2,0.5c0,0,0,0,0,0h0
                c0.4,0.7,0.2,1.6-0.5,2C5.5,3.9,4.6,3.6,4.2,2.9z M6,7.4L4.7,5.2l3.8-2.2l1.3,2.3L7.9,6.3l-1.7,1L6,7.4z M7,8.5
                c-0.1,0-0.2,0.1-0.2,0c-0.1,0-0.2-0.1-0.2-0.2L6.5,8.3c-0.1-0.2,0-0.4,0.1-0.5l1.7-1L9.8,6c0,0,0.1,0,0.2,0c0,0,0.1,0,0.1,0h0
                c0.1,0,0.2,0.1,0.2,0.2l0.1,0.1c0.1,0.2,0,0.4-0.1,0.5L7,8.5z M9.1,8.1L8.8,8.5L8.7,8.3L9.1,8.1z M8.8,11.1
                c-0.1,0.1-0.1,0.1-0.2,0.1c-0.1,0-0.2,0-0.3-0.1c-0.2-0.1-0.2-0.4-0.1-0.6l2.3-3.2c0.1-0.1,0.1-0.1,0.2-0.1l0,0c0,0,0,0,0.1,0
                c0.1,0,0.2,0,0.2,0.1c0.2,0.1,0.2,0.4,0.1,0.6L8.8,11.1z M10.6,10.3l-0.4,0.6L10,10.5l0.4-0.6L10.6,10.3z M10.2,13.5
                c-0.1,0.1-0.1,0.1-0.2,0.1c-0.1,0-0.2,0-0.3-0.1c-0.2-0.1-0.2-0.4-0.1-0.6l1.8-2.6l0,0l0,0l0.4-0.6c0.1-0.1,0.2-0.1,0.3-0.1
                c0.1,0,0.2,0,0.2,0.1c0.2,0.1,0.2,0.4,0.1,0.6L10.2,13.5z M12.1,12.8l-0.4,0.6l-0.2-0.4l0.4-0.6L12.1,12.8z M11.6,16
                c-0.1,0.1-0.1,0.1-0.2,0.1c-0.1,0-0.2,0-0.3-0.1c-0.2-0.1-0.2-0.4-0.1-0.6l2.3-3.2c0.1-0.1,0.2-0.1,0.3-0.1c0.1,0,0.2,0,0.2,0.1
                c0.2,0.1,0.2,0.4,0.1,0.6L11.6,16z M12.8,15.4l0.4-0.6l0.8,1.3c-0.2,0.1-0.4,0.2-0.6,0.3L12.8,15.4z M14.7,19.3
                c-0.4,0-0.7-0.1-0.9-0.4c-0.3-0.2-0.4-0.6-0.4-0.9c0-0.7,0.6-1.3,1.3-1.4h0c0.7,0,1.3,0.6,1.3,1.3C16,18.7,15.4,19.3,14.7,19.3z"
                />
            </g>
        </g>
        <g>
            <g>
                <path
                    d="M6.4,1.6C6.1,1.1,5.5,0.9,5,1.2c0,0,0,0,0,0C4.4,1.5,4.3,2.2,4.6,2.7C4.8,3.2,5.5,3.4,6,3.1c0,0,0,0,0,0
                C6.5,2.8,6.7,2.1,6.4,1.6z M5.7,2.5c-0.2,0.1-0.4,0-0.5-0.1c0,0,0,0,0,0C5,2.2,5.1,1.9,5.3,1.8c0.1,0,0.1-0.1,0.2-0.1
                c0.1,0,0.3,0.1,0.3,0.2C5.9,2.1,5.9,2.4,5.7,2.5z"
                />
            </g>
        </g>
        <g>
            <g>
                <circle cx="122" cy="202" r="16" />
            </g>
        </g>
    </g>
</svg>
