<svg xmlns="http://www.w3.org/2000/svg" viewBox="0 0 20 20">
    <g>
        <path
            d="M16.9,2.9C15,1,12.6,0,9.9,0c-2.6,0-5.1,1-7,2.9S0,7.3,0,9.9s1,5.1,2.9,7s4.4,2.9,7,2.9s5.1-1,7-2.9c1.9-1.9,2.9-4.4,2.9-7
		S18.8,4.8,16.9,2.9z M9.9,19c-5,0-9.1-4.1-9.1-9.1s4.1-9.1,9.1-9.1c5,0,9.1,4.1,9.1,9.1S14.9,19,9.9,19z"
        />
        <path
            d="M9.9,1.7c-4.5,0-8.2,3.7-8.2,8.2s3.7,8.2,8.2,8.2s8.2-3.7,8.2-8.2S14.4,1.7,9.9,1.7z M10.9,15.8h-2c-0.7-2.5-2.6-4.5-5-5.4
		l0.7-2.9c1.7-0.4,3.5-0.6,5.3-0.6c1.8,0,3.6,0.2,5.3,0.6l0.7,2.9C13.5,11.3,11.6,13.3,10.9,15.8z M2.5,9.9c0-0.6,0.1-1.2,0.2-1.8
		C3,8,3.4,7.9,3.7,7.8l-0.6,2.4c-0.2-0.1-0.4-0.1-0.7-0.1C2.5,10,2.5,10,2.5,9.9z M16.7,10.2l-0.6-2.4c0.3,0.1,0.7,0.2,1,0.3
		c0.1,0.6,0.2,1.2,0.2,1.8c0,0,0,0.1,0,0.1C17.1,10.1,16.9,10.1,16.7,10.2z M9.9,2.5c3.1,0,5.8,1.9,6.9,4.7
		c-0.4-0.1-0.8-0.2-1.1-0.3c-1.9-0.5-3.8-0.7-5.8-0.7C8,6.1,6,6.4,4.1,6.8C3.8,6.9,3.4,7,3,7.2C4.1,4.4,6.8,2.5,9.9,2.5z M2.5,10.9
		C5.6,11.5,8,14,8.4,17.2C5.3,16.6,2.9,14,2.5,10.9z M9.2,17.3c0-0.3-0.1-0.5-0.1-0.7h1.6c0,0.2-0.1,0.5-0.1,0.7c-0.2,0-0.4,0-0.7,0
		C9.7,17.3,9.5,17.3,9.2,17.3z M11.4,17.2c0.4-3.2,2.8-5.7,5.9-6.3C16.9,14,14.5,16.6,11.4,17.2z"
        />
        <path
            d="M9.9,7.7c-1.2,0-2.2,1-2.2,2.2c0,1.2,1,2.2,2.2,2.2c1.2,0,2.2-1,2.2-2.2C12.2,8.7,11.1,7.7,9.9,7.7z M9.9,11.4
		c-0.8,0-1.5-0.7-1.5-1.5c0-0.8,0.7-1.5,1.5-1.5c0.8,0,1.5,0.7,1.5,1.5C11.4,10.7,10.7,11.4,9.9,11.4z"
        />
    </g>
</svg>
