<svg xmlns="http://www.w3.org/2000/svg" viewBox="0 0 20 20">
    <g>
        <g>
            <g>
                <path
                    d="M19,3C19,3,19,3,19,3h-1.6V1c0-0.2-0.2-0.4-0.4-0.4h-3.8c-0.2,0-0.4,0.2-0.4,0.4v2H7.2V1c0-0.2-0.2-0.4-0.4-0.4H3
				C2.8,0.6,2.6,0.8,2.6,1v2H1C0.7,3,0.5,3.2,0.5,3.4v0V17c0,0.2,0.2,0.4,0.4,0.4H19c0.2,0,0.4-0.2,0.4-0.4V3.5
				C19.5,3.2,19.3,3,19,3z M13.6,1.5h2.9V3h-2.9V1.5z M3.4,1.5h2.9V3H3.4V1.5z M18.6,16.5H1.4V3.9h17.2V16.5z"
                />
            </g>
        </g>
        <g>
            <g>
                <path
                    d="M16.5,9.4h-13c-0.2,0-0.4,0.2-0.4,0.4v4.6c0,0.2,0.2,0.4,0.4,0.4h13c0.2,0,0.4-0.2,0.4-0.4V9.8C17,9.6,16.8,9.4,16.5,9.4
				z M16.1,14H3.9v-3.8h12.1V14z"
                />
            </g>
        </g>
        <g>
            <g>
                <path
                    d="M5.9,6.3H5.4V5.7c0-0.2-0.2-0.4-0.4-0.4S4.5,5.4,4.5,5.7v0.6H3.9c-0.2,0-0.4,0.2-0.4,0.4c0,0.2,0.2,0.4,0.4,0.4h0.6v0.6
				c0,0.2,0.2,0.4,0.4,0.4S5.4,8,5.4,7.7V7.1h0.6c0.2,0,0.4-0.2,0.4-0.4C6.3,6.5,6.1,6.3,5.9,6.3z"
                />
            </g>
        </g>
        <g>
            <g>
                <path
                    d="M16.1,6.3h-2c-0.2,0-0.4,0.2-0.4,0.4c0,0.2,0.2,0.4,0.4,0.4h2c0.2,0,0.4-0.2,0.4-0.4C16.5,6.5,16.3,6.3,16.1,6.3z"
                />
            </g>
        </g>
    </g>
</svg>
