<svg xmlns="http://www.w3.org/2000/svg" viewBox="0 0 20 20">
    <g>
        <path
            d="M11.9,19.5c0,0.3-0.2,0.5-0.5,0.5H8.6c-0.3,0-0.5-0.2-0.5-0.5S8.3,19,8.6,19h2.7C11.7,19,11.9,19.2,11.9,19.5z M16.4,14.6
		v1.5c0,1.1-0.9,2-2,2H5.6c-1.1,0-2-0.9-2-2v-1.5c0-0.3,0.2-0.5,0.5-0.5h0.1c0,0,0,0,0,0v-1.4c0,0,0-0.1,0-0.1c0-0.1,0-0.1,0.1-0.2
		c0-0.1,0.1-0.1,0.2-0.2c0,0,0.1,0,0.1,0C4.8,12.1,5,12.1,5.2,12V5.8c0-1,0.6-1.9,1.6-2.2c0,0,0-0.1,0-0.1V2.2C6.8,1,7.7,0,8.9,0
		h2.1c1.2,0,2.2,1,2.2,2.2v1.3c0,0,0,0.1,0,0.1c0.4,0.1,0.7,0.4,0.9,0.6c0,0,0,0,0-0.1c0.1-0.2,0.4-0.3,0.7-0.2
		c0.2,0.1,0.3,0.4,0.2,0.7c-1,1.8-2.3,3.5-4.1,5c-1.4,1.2-3,2.2-4.8,3.1v1.5h7.6V8c0-0.3,0.2-0.5,0.5-0.5c0.3,0,0.5,0.2,0.5,0.5v6.1
		h1.1C16.1,14.1,16.4,14.4,16.4,14.6z M7.8,3.4c0,0.1,0,0.2,0,0.3c0,0,0,0,0,0C8,4.3,8.4,4.6,8.9,4.6h2.1c0.5,0,1-0.3,1.1-0.8
		c0,0,0,0,0,0c0-0.1,0-0.2,0-0.3V2.2c0-0.6-0.5-1.2-1.2-1.2H8.9C8.3,1,7.8,1.5,7.8,2.2L7.8,3.4L7.8,3.4z M6.2,11.5
		c3.2-1.6,5.8-3.9,7.4-6.4c-0.1-0.3-0.4-0.5-0.7-0.6c-0.4,0.7-1.1,1.1-1.9,1.1H8.9C8.1,5.6,7.4,5.2,7,4.5C6.5,4.7,6.2,5.2,6.2,5.8
		L6.2,11.5L6.2,11.5z M15.4,15.1h-1c0,0,0,0,0,0H5.7c0,0,0,0,0,0h-1v1c0,0.5,0.4,1,1,1h8.8c0.5,0,1-0.4,1-1V15.1z"
        />
    </g>
</svg>
