<svg xmlns="http://www.w3.org/2000/svg" viewBox="0 0 20 20">
    <g>
        <g>
            <g>
                <path
                    d="M16.3,15.2c-0.6,0-1.1,0.5-1.1,1.1s0.5,1.1,1.1,1.1s1.1-0.5,1.1-1.1S16.9,15.2,16.3,15.2z M16.3,16.8
				c-0.3,0-0.5-0.2-0.5-0.5s0.2-0.5,0.5-0.5s0.5,0.2,0.5,0.5S16.6,16.8,16.3,16.8z"
                />
                <path
                    d="M18.5,8.9V6.2c0-0.5-0.4-0.8-0.8-0.8h-2.7c-0.5,0-0.8,0.4-0.8,0.8v2.7c0,0.5,0.4,0.8,0.8,0.8v4.4c-0.5,0-0.8,0.4-0.8,0.8
				v2.7c0,0.5,0.4,0.8,0.8,0.8h2.7c0.5,0,0.8-0.4,0.8-0.8v-2.7c0-0.5-0.4-0.8-0.8-0.8V9.7C18.1,9.7,18.5,9.4,18.5,8.9z M17.9,14.9
				v2.7c0,0.2-0.1,0.3-0.3,0.3h-2.7c-0.2,0-0.3-0.1-0.3-0.3v-2.7c0-0.2,0.1-0.3,0.3-0.3h2.7C17.8,14.6,17.9,14.8,17.9,14.9z
				 M15.5,14.1V9.7h1.6v4.4H15.5z M14.9,9.2c-0.2,0-0.3-0.1-0.3-0.3V6.2c0-0.2,0.1-0.3,0.3-0.3h2.7c0.2,0,0.3,0.1,0.3,0.3v2.7
				c0,0.2-0.1,0.3-0.3,0.3H14.9z"
                />
                <path
                    d="M16.3,6.5c-0.6,0-1.1,0.5-1.1,1.1s0.5,1.1,1.1,1.1s1.1-0.5,1.1-1.1S16.9,6.5,16.3,6.5z M16.3,8.1c-0.3,0-0.5-0.2-0.5-0.5
				C15.7,7.2,16,7,16.3,7s0.5,0.2,0.5,0.5C16.8,7.8,16.6,8.1,16.3,8.1z"
                />
                <path
                    d="M10,15.2c-0.6,0-1.1,0.5-1.1,1.1s0.5,1.1,1.1,1.1s1.1-0.5,1.1-1.1S10.6,15.2,10,15.2z M10,16.8c-0.3,0-0.5-0.2-0.5-0.5
				s0.2-0.5,0.5-0.5s0.5,0.2,0.5,0.5S10.3,16.8,10,16.8z"
                />
                <path
                    d="M11.4,3.7H8.6c-0.5,0-0.8,0.4-0.8,0.8v2.7c0,0.5,0.4,0.8,0.8,0.8v6c-0.5,0-0.8,0.4-0.8,0.8v2.7c0,0.5,0.4,0.8,0.8,0.8
				h2.7c0.5,0,0.8-0.4,0.8-0.8v-2.7c0-0.5-0.4-0.8-0.8-0.8v-6c0.5,0,0.8-0.4,0.8-0.8V4.5C12.2,4.1,11.8,3.7,11.4,3.7z M11.6,14.9
				v2.7c0,0.2-0.1,0.3-0.3,0.3H8.6c-0.2,0-0.3-0.1-0.3-0.3v-2.7c0-0.2,0.1-0.3,0.3-0.3h2.7C11.5,14.6,11.6,14.8,11.6,14.9z
				 M9.2,14.1v-6h1.6v6H9.2z M11.6,7.3c0,0.2-0.1,0.3-0.3,0.3H8.6c-0.2,0-0.3-0.1-0.3-0.3V4.5c0-0.2,0.1-0.3,0.3-0.3h2.7
				c0.2,0,0.3,0.1,0.3,0.3V7.3z"
                />
                <path
                    d="M10,4.8c-0.6,0-1.1,0.5-1.1,1.1S9.4,7,10,7s1.1-0.5,1.1-1.1S10.6,4.8,10,4.8z M10,6.5c-0.3,0-0.5-0.2-0.5-0.5
				c0-0.3,0.2-0.5,0.5-0.5s0.5,0.2,0.5,0.5C10.5,6.2,10.3,6.5,10,6.5z"
                />
                <path
                    d="M3.7,15.2c-0.6,0-1.1,0.5-1.1,1.1s0.5,1.1,1.1,1.1s1.1-0.5,1.1-1.1S4.3,15.2,3.7,15.2z M3.7,16.8c-0.3,0-0.5-0.2-0.5-0.5
				s0.2-0.5,0.5-0.5s0.5,0.2,0.5,0.5S4,16.8,3.7,16.8z"
                />
                <path
                    d="M5.1,1.5H2.4c-0.5,0-0.8,0.4-0.8,0.8v2.7c0,0.5,0.4,0.8,0.8,0.8v8.2c-0.5,0-0.8,0.4-0.8,0.8v2.7c0,0.5,0.4,0.8,0.8,0.8
				h2.7c0.5,0,0.8-0.4,0.8-0.8v-2.7c0-0.5-0.4-0.8-0.8-0.8V5.9c0.5,0,0.8-0.4,0.8-0.8V2.4C5.9,1.9,5.5,1.5,5.1,1.5z M5.4,14.9v2.7
				c0,0.2-0.1,0.3-0.3,0.3H2.4c-0.2,0-0.3-0.1-0.3-0.3v-2.7c0-0.2,0.1-0.3,0.3-0.3h2.7C5.2,14.6,5.4,14.8,5.4,14.9z M2.9,14.1V5.9
				h1.6v8.2H2.9z M5.4,5.1c0,0.2-0.1,0.3-0.3,0.3H2.4c-0.2,0-0.3-0.1-0.3-0.3V2.4c0-0.2,0.1-0.3,0.3-0.3h2.7c0.2,0,0.3,0.1,0.3,0.3
				V5.1z"
                />
                <path
                    d="M3.7,2.6c-0.6,0-1.1,0.5-1.1,1.1s0.5,1.1,1.1,1.1s1.1-0.5,1.1-1.1S4.3,2.6,3.7,2.6z M3.7,4.3C3.4,4.3,3.2,4,3.2,3.7
				c0-0.3,0.2-0.5,0.5-0.5s0.5,0.2,0.5,0.5S4,4.3,3.7,4.3z"
                />
                <rect x="3.5" y="6.5" width="0.5" height="0.5" />
                <rect x="3.5" y="7.5" width="0.5" height="4.9" />
                <rect x="9.7" y="13" width="0.5" height="0.5" />
                <rect x="9.7" y="9.7" width="0.5" height="2.7" />
                <rect x="16" y="13" width="0.5" height="0.5" />
                <rect x="16" y="10.3" width="0.5" height="2.2" />
                <rect x="9.7" y="8.6" width="0.5" height="0.5" />
                <rect x="3.5" y="13" width="0.5" height="0.5" />
            </g>
        </g>
    </g>
</svg>
